<svg xmlns="http://www.w3.org/2000/svg" viewBox="0 0 664.54 211.27"><defs><style>.cls-1{isolation:isolate;}.cls-2{fill:#b4b2b2;stroke:#b4b2b2;stroke-width:0.41px;mix-blend-mode:multiply;}.cls-2,.cls-6{stroke-miterlimit:10;}.cls-3{fill:#010101;}.cls-4{font-size:90px;fill:#231f20;font-family:Akkurat-Bold;src:url('../fonts/Akkurat-Bold.otf')font-weight:700;}.cls-5{letter-spacing:-1px;}.cls-6{fill:none;stroke:#231f20;stroke-linecap:round;stroke-width:6px;}</style></defs><title>logo_wordmark</title><g class="cls-1"><g id="Layer_1" data-name="Layer 1"><path class="cls-2" d="M656.42,154.16h0l-1.57,1.63-0.19.19-0.63.64-0.45.45-0.58.57-0.67.65-0.69.66-0.71.66-0.47.43-0.73.64-0.42.36-1.11.93-0.34.27-0.88.69-0.41.31-1,.73-0.26.19q-0.62.44-1.26,0.86l-0.35.23-1,.63-0.39.23c-0.45.27-.91,0.53-1.37,0.78q-3,1.61-6.13,3-1.25.56-2.53,1.08a78.73,78.73,0,0,1-25.43,5.93q-1.37.07-2.74,0.09H602.7q-2.06,0-4.1-.18c-1.67-.13-3.34-0.23-5-0.31-4.18-.21-8.37-0.3-12.55-0.42l-2.51-.08-2.61-.11c-3.48-.17-7-0.43-10.43-0.59-1.74-.08-3.47-0.14-5.21-0.15q-1.3,0-2.6,0h0c-12.43.28-24.83,1.12-37.25,1.83-4.26.24-8.79,1-13.06,0.65-3.59-.27-7.18-0.66-10.77-1a42.46,42.46,0,0,1-6.51-.89c-3.62-.91-7.25-1.87-10.81-3a30.23,30.23,0,0,1-3-1l-0.37-.13c-3-1.05-5.76-2.44-8.64-3.69-1.83-.8-3.71-1.48-5.6-2.1s-3.8-1.21-5.71-1.8q-2.09-.65-4.15-1.36a80.91,80.91,0,0,1-17-8c-1.55-1-26.59,8.23-30.52,17.49-5.18,12.21,1.83,17.75,28.74,22.85,21.6,4.1,55.55,2.58,70.53,1.63a89.28,89.28,0,0,0,13.91-2c14-3.14,46.16.13,54,.74,13.68,1.07,51.46,2.46,64,1.52,8-.6,34.88-4.71,44-19.3C685.28,168.47,669.16,159.52,656.42,154.16Z" transform="translate(-19.21 -13.57)"/><path d="M492.28,35.37c6.41,0,12.73.19,19.12,0.75,7.87,0.69,15.71,2,23.63,1.52,8.09-.53,16.19-2.22,24.28-0.86,7.2,1.21,14.16,3.61,21.24,5.34,6.9,1.69,13.74,3,20.39,5.64,7.88,3.09,15.61,6.66,23.4,10,14.17,6,26.08,14,38,23.71,9.45,7.68,16.69,17.54,15.37,30.4-1.05,10.31-8,19.91-14.69,27.57-3.9,4.5-8.08,8.83-12.19,13.14-8.67,9.1-20.31,14.32-32.47,16.92-14.71,3.15-31.15,1.16-46.19.53a355.44,355.44,0,0,0-35.64.38c-11.41.65-22.83,2-34.22,0.94-2.84-.26-5.77-0.34-8.59-0.79,1.68,0.27-1.58-.47-2-0.57q-3.18-.81-6.34-1.72a136.24,136.24,0,0,1-15.12-5.72c-7.55-3.18-15.64-4.81-23.09-8.26-14.06-6.51-27.63-18.22-34.74-32.14A47.78,47.78,0,0,1,409.71,85c5.14-16,17-28.06,31.88-35.3a140.89,140.89,0,0,1,50.69-14.3c4-.32,4-6.6,0-6.28a144.36,144.36,0,0,0-45.47,11.36c-13.92,5.91-26,13.4-34.8,26-15.25,22-14.43,49.64,2.74,70.28a86.53,86.53,0,0,0,35,25.33c7.85,3,15.83,5.26,23.58,8.61a104.93,104.93,0,0,0,14.93,4.84c10.29,2.72,20.83,2.69,31.36,2.09,13.24-.75,26.46-1.66,39.72-2,14.45-.32,29.09,1.5,43.56,1.81A78.06,78.06,0,0,0,644.39,166c7.54-4.68,13.21-11.49,19.18-17.92a111.38,111.38,0,0,0,13.86-17.78c7.07-11.66,8.25-23.75,3.3-36.36-4.8-12.23-17.58-20.19-27.78-27.66-13.53-9.9-29.31-15.43-44.54-22.1A116,116,0,0,0,586.6,37.1c-8-1.76-15.78-4.4-23.8-6S547,30.25,539,31c-8.46.81-16.5-.11-24.91-0.93-7.27-.7-14.48-1-21.78-1C488.24,29.09,488.23,35.37,492.28,35.37Z" transform="translate(-19.21 -13.57)"/><path class="cls-3" d="M444.87,71.59l0.1-.17a5.06,5.06,0,0,1,.29-0.46,11.35,11.35,0,0,1,1.14-1.39,14.21,14.21,0,0,1,4.1-2.87,14,14,0,0,1,4.83-1.32,11.24,11.24,0,0,1,1.8,0,5,5,0,0,1,.54.07l0.19,0-0.1.17a5,5,0,0,1-.29.46,11.24,11.24,0,0,1-1.14,1.39,14,14,0,0,1-4.1,2.87,14.21,14.21,0,0,1-4.83,1.31,11.36,11.36,0,0,1-1.8,0,5.08,5.08,0,0,1-.54-0.07Z" transform="translate(-19.21 -13.57)"/><path class="cls-3" d="M506.27,142.46s-0.88-.29-2.15-0.78c-0.64-.25-1.38-0.54-2.17-0.87s-1.61-.7-2.44-1.07-1.74-.6-2.47-1a6.74,6.74,0,0,1-1.72-1.59,7.74,7.74,0,0,1-.95-1.55,4.82,4.82,0,0,1-.27-0.73,0.25,0.25,0,0,1,.18-0.31h0a4.82,4.82,0,0,1,.77-0.08,7.74,7.74,0,0,1,1.81.17,6.74,6.74,0,0,1,2.18.85c0.7,0.47,1.29,1.21,2,1.77s1.4,1.15,2,1.73,1.23,1.1,1.73,1.57c1,0.93,1.65,1.59,1.65,1.59A0.19,0.19,0,0,1,506.27,142.46Z" transform="translate(-19.21 -13.57)"/><path class="cls-3" d="M641.82,91.49a5.67,5.67,0,0,1,0-.74,10.2,10.2,0,0,1,.28-1.78,13,13,0,0,1,.78-2.25,15.65,15.65,0,0,1,1.3-2.3c0.26-.36.52-0.73,0.81-1.07a12.47,12.47,0,0,1,.87-1,12.82,12.82,0,0,1,1.82-1.54,10.08,10.08,0,0,1,1.56-.9,5.65,5.65,0,0,1,.68-0.28,5.58,5.58,0,0,1,0,.74,10.1,10.1,0,0,1-.28,1.78,12.82,12.82,0,0,1-.78,2.25,12.5,12.5,0,0,1-.59,1.16c-0.21.39-.46,0.76-0.71,1.14a15.62,15.62,0,0,1-1.68,2,13,13,0,0,1-1.82,1.54,10.15,10.15,0,0,1-1.56.9A5.63,5.63,0,0,1,641.82,91.49Z" transform="translate(-19.21 -13.57)"/><text class="cls-4" transform="translate(0 76.9)"><tspan class="cls-5">P</tspan><tspan x="54.81" y="0">o</tspan><tspan x="105.66" y="0">t</tspan><tspan x="141.66" y="0">a</tspan><tspan x="191.79" y="0">t</tspan><tspan x="226.89" y="0">o</tspan><tspan class="cls-5" x="0" y="108">P</tspan><tspan x="54.81" y="108">o</tspan><tspan x="105.66" y="108">t</tspan><tspan x="141.66" y="108">a</tspan><tspan x="191.79" y="108">t</tspan><tspan x="226.89" y="108">o</tspan></text><line class="cls-6" x1="332.59" y1="34.34" x2="332.59" y2="166.34"/></g></g></svg>
